<?xml version="1.0" encoding="UTF-8" standalone="no"?>
<svg width="1024" height="1024" viewBox="0 0 1024 1024" fill="none" xmlns="http://www.w3.org/2000/svg">
  <!-- 背景 -->
  <rect width="1024" height="1024" rx="180" fill="#1E2022"/>
  
  <!-- ブロック群 - 上部に配置 -->
  <!-- 1段目 -->
  <rect x="174" y="174" width="100" height="50" rx="5" fill="#FF4646"/>
  <rect x="284" y="174" width="100" height="50" rx="5" fill="#FF8846"/>
  <rect x="394" y="174" width="100" height="50" rx="5" fill="#FFD446"/>
  <rect x="504" y="174" width="100" height="50" rx="5" fill="#92FF46"/>
  <rect x="614" y="174" width="100" height="50" rx="5" fill="#46FFFF"/>
  <rect x="724" y="174" width="100" height="50" rx="5" fill="#4676FF"/>
  
  <!-- 2段目 -->
  <rect x="174" y="234" width="100" height="50" rx="5" fill="#FF8846"/>
  <rect x="284" y="234" width="100" height="50" rx="5" fill="#FFD446"/>
  <rect x="394" y="234" width="100" height="50" rx="5" fill="#92FF46"/>
  <rect x="504" y="234" width="100" height="50" rx="5" fill="#46FFFF"/>
  <rect x="614" y="234" width="100" height="50" rx="5" fill="#4676FF"/>
  <rect x="724" y="234" width="100" height="50" rx="5" fill="#9746FF"/>
  
  <!-- 3段目 -->
  <rect x="174" y="294" width="100" height="50" rx="5" fill="#FFD446"/>
  <rect x="284" y="294" width="100" height="50" rx="5" fill="#92FF46"/>
  <rect x="394" y="294" width="100" height="50" rx="5" fill="#46FFFF"/>
  <rect x="504" y="294" width="100" height="50" rx="5" fill="#4676FF"/>
  <rect x="614" y="294" width="100" height="50" rx="5" fill="#9746FF"/>
  <rect x="724" y="294" width="100" height="50" rx="5" fill="#FF46B5"/>
  
  <!-- 4段目 -->
  <rect x="174" y="354" width="100" height="50" rx="5" fill="#92FF46"/>
  <rect x="284" y="354" width="100" height="50" rx="5" fill="#46FFFF"/>
  <rect x="394" y="354" width="100" height="50" rx="5" fill="#4676FF"/>
  <rect x="504" y="354" width="100" height="50" rx="5" fill="#9746FF"/>
  <rect x="614" y="354" width="100" height="50" rx="5" fill="#FF46B5"/>
  <rect x="724" y="354" width="100" height="50" rx="5" fill="#FF4646"/>
  
  <!-- ボール - 中心付近に配置 -->
  <circle cx="512" cy="500" r="40" fill="white">
    <animate attributeName="cy" values="500;520;500;480;500" dur="2s" repeatCount="indefinite" />
  </circle>
  
  <!-- 残像エフェクト -->
  <circle cx="512" cy="550" r="35" fill="white" opacity="0.6"/>
  <circle cx="512" cy="590" r="30" fill="white" opacity="0.3"/>
  
  <!-- パドル - 下部に配置 -->
  <rect x="362" y="750" width="300" height="25" rx="12.5" fill="#4DACF0"/>
  
  <!-- 輝き効果 -->
  <rect x="362" y="750" width="300" height="25" rx="12.5" fill="url(#paddleGradient)"/>
  <circle cx="512" cy="500" r="40" fill="url(#ballGlow)"/>
  
  <!-- グラデーション定義 -->
  <defs>
    <radialGradient id="ballGlow" cx="0.5" cy="0.5" r="0.5" gradientUnits="objectBoundingBox">
      <stop offset="0%" stop-color="white" stop-opacity="1"/>
      <stop offset="70%" stop-color="white" stop-opacity="1"/>
      <stop offset="100%" stop-color="#4DACF0" stop-opacity="0.6"/>
    </radialGradient>
    
    <linearGradient id="paddleGradient" x1="0" y1="0" x2="1" y2="0" gradientUnits="objectBoundingBox">
      <stop offset="0%" stop-color="#3B8ED6" stop-opacity="1"/>
      <stop offset="50%" stop-color="#5EB9FF" stop-opacity="1"/>
      <stop offset="100%" stop-color="#3B8ED6" stop-opacity="1"/>
    </linearGradient>
  </defs>
</svg> 